<svg width="64" height="64" viewBox="0 0 64 64" fill="none" xmlns="http://www.w3.org/2000/svg">
<g clip-path="url(#clip0_209_1575)">
<path d="M32 64C49.6731 64 64 49.6731 64 32C64 14.3269 49.6731 0 32 0C14.3269 0 0 14.3269 0 32C0 49.6731 14.3269 64 32 64Z" fill="#76C2AF"/>
<g opacity="0.2">
<path d="M47.8 30H40V18C40 15.8 38.2 14 36 14H28C25.8 14 24 15.8 24 18V30H16.2C13.5 30 12.7 31.9 14.5 34.1L28.8 52.2C30.6 54.5 33.5 54.5 35.3 52.2L49.6 34.1C51.3 31.9 50.6 30 47.8 30Z" fill="#231F20"/>
</g>
<path d="M24 16C24 13.8 25.8 12 28 12H36C38.2 12 40 13.8 40 16V40C40 42.2 38.2 44 36 44H28C25.8 44 24 42.2 24 40V16Z" fill="white"/>
<path d="M47.8 28C50.5 28 51.3 29.9 49.5 32.1L35.3 50.3C33.5 52.6 30.6 52.6 28.8 50.3L14.5 32.1C12.7 29.8 13.5 28 16.2 28H47.8Z" fill="white"/>
</g>
<defs>
<clipPath id="clip0_209_1575">
<rect width="64" height="64" fill="white"/>
</clipPath>
</defs>
</svg>
