<svg width="64" height="64" viewBox="0 0 64 64" fill="none" xmlns="http://www.w3.org/2000/svg">
<circle cx="32" cy="32" r="32" fill="#D9D9D9"/>
<g clip-path="url(#clip0_209_734)">
<path d="M0 32C0 40.4869 3.37142 48.6263 9.37258 54.6274C15.3737 60.6286 23.5131 64 32 64C40.4869 64 48.6263 60.6286 54.6274 54.6274C60.6286 48.6263 64 40.4869 64 32C64 23.5131 60.6286 15.3737 54.6274 9.37258C48.6263 3.37142 40.4869 0 32 0C23.5131 0 15.3737 3.37142 9.37258 9.37258C3.37142 15.3737 0 23.5131 0 32Z" fill="#8DD9FF"/>
<path d="M19.1779 2.68025C17.6416 5.35413 16.75 8.44513 16.75 11.75C16.75 21.8291 24.9207 30 35 30C45.0793 30 53.25 21.8291 53.25 11.75C53.25 10.3461 53.0765 8.98525 52.7764 7.67238C47.1851 2.89263 39.9324 0 32 0C27.439 0 23.1044 0.960625 19.1779 2.68025Z" fill="#FFFFF4"/>
<path d="M26.4201 11.75C26.4201 12.8767 26.6421 13.9924 27.0732 15.0334C27.5044 16.0743 28.1364 17.0202 28.9331 17.8169C29.7298 18.6136 30.6757 19.2456 31.7166 19.6768C32.7576 20.108 33.8733 20.3299 35 20.3299C36.1267 20.3299 37.2424 20.108 38.2834 19.6768C39.3243 19.2456 40.2702 18.6136 41.0669 17.8169C41.8636 17.0202 42.4956 16.0743 42.9268 15.0334C43.358 13.9924 43.5799 12.8767 43.5799 11.75C43.5799 9.47449 42.6759 7.29216 41.0669 5.68312C39.4579 4.07408 37.2755 3.17014 35 3.17014C32.7245 3.17014 30.5422 4.07408 28.9331 5.68312C27.3241 7.29216 26.4201 9.47449 26.4201 11.75Z" fill="#FFFFF4"/>
<path d="M43.5106 38.3021C43.5106 36.7744 42.2721 35.5358 40.7443 35.5358C40.5136 35.5358 40.2932 35.5723 40.079 35.6254C39.3571 34.8459 38.3338 34.3501 37.1875 34.3501C35.0049 34.3501 33.2356 36.1195 33.2356 38.302H43.5106V38.3021Z" fill="white"/>
<path d="M21.4147 38.3021C21.4147 36.214 19.722 34.5213 17.6339 34.5213C17.3187 34.5213 17.0174 34.5711 16.7247 34.6438C15.7381 33.5784 14.3394 32.9009 12.7727 32.9009C9.78974 32.9009 7.37137 35.3191 7.37137 38.3023H21.4147V38.3021ZM34.1359 36.4686C33.9435 36.4686 33.7617 36.5065 33.5875 36.5614C33.0355 35.768 32.12 35.2463 31.0802 35.2463C30.0405 35.2463 29.1249 35.7679 28.573 36.5614C28.3987 36.5064 28.217 36.4686 28.0246 36.4686C27.012 36.4686 26.1912 37.2895 26.1912 38.302H35.9695C35.9692 37.2895 35.1484 36.4686 34.1359 36.4686ZM54.3961 36.826C54.2412 36.826 54.0949 36.8565 53.9546 36.9008C53.5102 36.262 52.7731 35.842 51.936 35.842C51.0989 35.842 50.3617 36.262 49.9174 36.9008C49.7771 36.8565 49.6307 36.826 49.4759 36.826C48.6606 36.826 47.9999 37.4869 47.9999 38.302H55.8721C55.8722 37.4869 55.2114 36.826 54.3961 36.826Z" fill="white"/>
<path d="M61.181 36.4912C60.991 36.4912 60.8115 36.5286 60.6394 36.5829C60.0942 35.7992 59.1899 35.284 58.1629 35.284C57.1359 35.284 56.2316 35.7992 55.6864 36.5829C55.5142 36.5286 55.3347 36.4912 55.1447 36.4912C54.1446 36.4912 53.3339 37.302 53.3339 38.3021H62.9917C62.9919 37.302 62.1811 36.4912 61.181 36.4912Z" fill="white"/>
<path d="M62.9919 40H5.83337L11 52C11 52 25.7671 60.6666 30.0502 61.6666C31.8116 62.0779 34.8966 62.7709 37.9187 63.4446C50.1425 61.1575 59.9215 51.9291 62.9919 40Z" fill="#57B9E7"/>
<path d="M59.3479 48.6234C53.6971 46.3427 43.4883 44.8167 31.8119 44.8167C21.9279 44.8167 13.0883 45.9092 7.17801 47.6276L8.79988 51.3316C8.79988 51.3316 19.7781 57.6661 26.2719 60.5017C28.0728 60.5784 29.9218 60.6205 31.8119 60.6205C37.8724 60.6205 43.5326 60.2069 48.3743 59.4931C52.8571 56.8174 56.6329 53.0802 59.3479 48.6234Z" fill="#B3F4EF"/>
<path d="M58.1439 50.4446H16.524V53.375H55.8082C56.6431 52.4465 57.4211 51.4666 58.1439 50.4446Z" fill="white"/>
<path d="M56.367 52.7186H16.524C16.524 52.7186 24.5602 58.125 24.6551 58.125C24.7165 58.125 36.693 59.1688 45.148 59.9063C46.2559 59.782 47.3374 59.646 48.3742 59.4933C51.4006 57.6868 54.094 55.3874 56.367 52.7186Z" fill="#FFF8DB"/>
<path d="M32 41.625C43.2288 41.625 53.4565 42.9735 61.1446 45.1839C61.8973 43.5238 62.5292 41.7972 62.9917 40H5.83337L7.55987 44.0099C14.5136 42.5064 22.9288 41.625 32 41.625Z" fill="#57B9E7"/>
<path d="M5.96488 40.5C5.73821 40.5001 5.51821 40.4232 5.34097 40.282C5.16372 40.1407 5.03973 39.9433 4.98933 39.7223C4.93893 39.5013 4.9651 39.2698 5.06357 39.0656C5.16203 38.8614 5.32694 38.6968 5.53126 38.5986C9.90238 36.4985 15.1133 31.9072 15.1133 21.96C15.1133 21.4077 15.5605 20.96 16.1133 20.96C16.666 20.96 17.1133 21.4077 17.1133 21.96C17.1133 32.9472 11.2851 38.0527 6.39651 40.4014C6.26183 40.4661 6.11433 40.4999 5.96488 40.5Z" fill="#8C665B"/>
<path d="M16.5058 21.0229C16.5058 21.0229 10.479 20.8651 10.2694 27.0464C10.2694 27.0464 10.9528 26.4922 11.1921 25.9751C11.1921 25.9751 11.3469 26.2885 11.2373 26.6156C11.2373 26.6156 11.8008 26.0679 11.9486 25.4611C11.9486 25.4611 12.0505 25.6875 11.9506 26.0152C11.9506 26.0152 12.5391 25.5317 12.7015 25.1456C12.7015 25.1456 12.7974 25.3192 12.664 25.5612C12.664 25.5612 13.2224 25.0759 13.3618 24.3849C13.3618 24.3849 13.5321 24.5426 13.4884 24.9055C13.4884 24.9055 14.156 24.1139 14.2254 23.6587C14.2254 23.6587 14.4533 23.7539 14.323 24.0971C14.323 24.097 15.959 22.8811 16.5058 21.0229Z" fill="#43AB5F"/>
<path d="M16.5058 21.0229C16.5058 21.0229 21.611 24.2298 18.3616 29.4923C18.3616 29.4923 18.0995 28.6524 18.1868 28.0893C18.1868 28.0893 17.8842 28.2644 17.7944 28.5975C17.7944 28.5975 17.6285 27.8294 17.8416 27.2421C17.8416 27.2421 17.6314 27.3743 17.5331 27.7025C17.5331 27.7025 17.3109 26.974 17.3896 26.5625C17.3896 26.5625 17.2136 26.654 17.1906 26.9294C17.1906 26.9294 16.9946 26.2159 17.2612 25.5635C17.2612 25.5635 17.032 25.6005 16.8675 25.9268C16.8675 25.9268 16.7501 24.8979 16.9445 24.4805C16.9445 24.4805 16.702 24.4335 16.6204 24.7915C16.6202 24.7914 15.9318 22.8729 16.5058 21.0229Z" fill="#43AB5F"/>
<path d="M16.5058 21.0229C16.5058 21.0229 17.126 14.7562 11.1249 14.1459C11.1249 14.1459 11.6114 14.8927 12.0963 15.1749C12.0963 15.1749 11.7791 15.3161 11.4691 15.1811C11.4691 15.1811 11.9588 15.8027 12.538 15.9952C12.538 15.9952 12.3098 16.0871 11.9984 15.9622C11.9984 15.9622 12.4234 16.6057 12.7869 16.7994C12.7869 16.7994 12.6105 16.8881 12.3853 16.734C12.3853 16.734 12.8145 17.3462 13.4764 17.5352C13.4764 17.5352 13.3096 17.7028 12.9598 17.6343C12.9598 17.6343 13.6788 18.3796 14.1165 18.4809C14.1165 18.4809 14.0061 18.7121 13.6821 18.5546C13.6821 18.5546 14.7391 20.3355 16.5058 21.0229Z" fill="#52C883"/>
<path d="M16.5058 21.0229C16.5058 21.0229 11.9906 15.9234 6.6745 20.5515C6.6745 20.5515 7.6635 20.6854 8.27925 20.4815C8.27925 20.4815 8.13712 20.8528 7.77975 21.0163C7.77975 21.0163 8.671 21.0561 9.291 20.7069C9.291 20.7069 9.18087 20.9669 8.8305 21.1389C8.8305 21.1389 9.68737 21.2494 10.1346 21.0835C10.1346 21.0835 10.0636 21.2975 9.75912 21.3754C9.75912 21.3754 10.5944 21.4595 11.278 21.0378C11.278 21.0378 11.2779 21.301 10.9415 21.5468C10.9415 21.5468 12.1164 21.4831 12.5495 21.1869C12.5495 21.1869 12.6459 21.449 12.2591 21.6081C12.2592 21.6083 14.5346 22.0146 16.5058 21.0229ZM16.5058 21.0229C16.5058 21.0229 23.0896 19.278 24.9522 26.076C24.9522 26.076 24.0546 25.6398 23.6549 25.1289C23.6549 25.1289 23.5675 25.5166 23.7745 25.8508C23.7745 25.8508 23.0104 25.3903 22.6876 24.756C22.6876 24.756 22.6353 25.0335 22.8318 25.3709C22.8318 25.3709 22.0571 24.9883 21.7766 24.6024C21.7766 24.6024 21.7173 24.8199 21.9276 25.0534C21.9276 25.0534 21.1856 24.6608 20.85 23.9309C20.85 23.9309 20.7044 24.1503 20.8482 24.5411C20.8482 24.5411 19.9053 23.8374 19.7089 23.3509C19.7089 23.3509 19.4835 23.5158 19.7174 23.8624C19.7171 23.8624 17.5976 22.9405 16.5058 21.0229Z" fill="#34BE69"/>
<path d="M16.5057 21.0229C16.5057 21.0229 17.7069 14.3185 24.655 15.5033C24.655 15.5033 23.8802 16.1325 23.2484 16.2789C23.2484 16.2789 23.5629 16.5219 23.9531 16.4755C23.9531 16.4755 23.2127 16.9734 22.5017 16.9979C22.5017 16.9979 22.731 17.1628 23.1197 17.1271C23.1197 17.1271 22.4457 17.6675 21.9774 17.7586C21.9774 17.7586 22.1492 17.9043 22.4499 17.8124C22.4499 17.8124 21.7804 18.3189 20.9772 18.3146C20.9772 18.3146 21.1145 18.5394 21.5295 18.5741C21.5295 18.5741 20.4932 19.1314 19.9692 19.1038C19.9692 19.1038 20.0234 19.3778 20.4365 19.3123C20.4364 19.3124 18.7051 20.8438 16.5057 21.0229Z" fill="#52C883"/>
<path d="M12.8823 51.2188V49.1896C16.0983 49.1896 23.7688 40.722 23.9719 36.9463L25.999 37.0553C25.7335 41.9531 17.1535 51.2188 12.8823 51.2188Z" fill="#8C665B"/>
<path d="M31.6269 11.75C31.6269 12.6446 31.9823 13.5026 32.6149 14.1351C33.2474 14.7677 34.1054 15.1231 35 15.1231C35.8946 15.1231 36.7526 14.7677 37.3852 14.1351C38.0178 13.5026 38.3731 12.6446 38.3731 11.75C38.3731 10.8554 38.0178 9.99741 37.3852 9.36483C36.7526 8.73224 35.8946 8.37686 35 8.37686C34.1054 8.37686 33.2474 8.73224 32.6149 9.36483C31.9823 9.99741 31.6269 10.8554 31.6269 11.75Z" fill="white"/>
<path d="M25.9494 54C23.4714 52 20.8099 53.9166 19.3414 51C18.4753 49.2796 14.6081 50.45 12.7334 49C10.2554 47.0834 10.6348 44.6146 9.42939 42C7.88064 38.6406 3.99276 36.3068 0.261261 36.0281C2.24351 51.7983 15.6923 64 32 64C40.1124 64 47.5144 60.9754 53.1546 56H31.456C28.7944 56 27.4174 55.1849 25.9494 54Z" fill="#8C665B"/>
<path d="M25.278 37.3034C25.278 37.3034 18.678 36.5239 17.826 43.2881C17.826 43.2881 18.632 42.7485 18.9467 42.205C18.9467 42.205 19.0851 42.5646 18.9319 42.9128C18.9319 42.9128 19.6055 42.3683 19.829 41.7169C19.829 41.7169 19.9181 41.9756 19.7754 42.3254C19.7754 42.3254 20.4701 41.8539 20.6871 41.4463C20.6871 41.4463 20.7749 41.6465 20.6041 41.8988C20.6041 41.8988 21.266 41.4221 21.4885 40.6776C21.4885 40.6776 21.6596 40.868 21.5751 41.2619C21.5751 41.2619 22.3876 40.46 22.5096 39.9674C22.5096 39.9674 22.7502 40.0948 22.5726 40.4585C22.5726 40.4584 24.4907 39.2881 25.278 37.3034Z" fill="#43AB5F"/>
<path d="M25.278 37.3034C25.278 37.3034 30.5595 41.3374 26.4631 46.7873C26.4631 46.7873 26.26 45.8389 26.4122 45.2295C26.4122 45.2295 26.0626 45.3914 25.9304 45.748C25.9304 45.748 25.8256 44.8881 26.1185 44.265C26.1185 44.265 25.8745 44.3889 25.7335 44.7393C25.7335 44.7393 25.5629 43.9171 25.6907 43.4734C25.6907 43.4734 25.4884 43.5561 25.4354 43.856C25.4354 43.856 25.292 43.053 25.6502 42.3636C25.6502 42.3636 25.3949 42.3811 25.1815 42.7228C25.1815 42.7228 25.1561 41.5815 25.4115 41.1429C25.4115 41.1429 25.1501 41.0669 25.0244 41.4516C25.0245 41.4518 24.4617 39.2764 25.278 37.3034Z" fill="#43AB5F"/>
<path d="M25.278 37.3034C25.278 37.3034 26.5894 30.4866 20.0631 29.2129C20.0631 29.2129 20.522 30.0816 21.0259 30.4401C21.0259 30.4401 20.6636 30.5633 20.3369 30.384C20.3369 30.384 20.8117 31.1156 21.4282 31.3853C21.4282 31.3853 21.1685 31.4631 20.8392 31.2948C20.8392 31.2948 21.2411 32.0439 21.6206 32.293C21.6206 32.293 21.418 32.3726 21.1862 32.1808C21.1862 32.1808 21.5959 32.8961 22.3034 33.17C22.3034 33.17 22.1034 33.3371 21.7262 33.2266C21.7262 33.2266 22.4405 34.1173 22.9109 34.2724C22.9109 34.2724 22.7665 34.5151 22.4266 34.3096C22.4267 34.3098 23.4079 36.3709 25.278 37.3034Z" fill="#52C883"/>
<path d="M25.278 37.3034C25.278 37.3034 20.8346 31.2511 14.5331 35.7968C14.5331 35.7968 15.6054 36.0433 16.3019 35.8814C16.3019 35.8814 16.1085 36.2746 15.6998 36.4183C15.6998 36.4183 16.6741 36.5518 17.3899 36.2308C17.3899 36.2308 17.2429 36.5051 16.8409 36.6586C16.8409 36.6586 17.7704 36.8661 18.2781 36.729C18.2781 36.729 18.1788 36.9568 17.8366 37.0116C17.8366 37.0116 18.745 37.188 19.538 36.7939C19.538 36.7939 19.5114 37.0829 19.1174 37.3188C19.1174 37.3188 20.4135 37.3671 20.9188 37.0855C20.9188 37.0855 20.9981 37.383 20.5576 37.5186C20.5575 37.5186 23.0144 38.1936 25.278 37.3034ZM25.278 37.3034C25.278 37.3034 32.6809 36.0504 34.0416 43.7003C34.0416 43.7003 33.1001 43.131 32.7128 42.5301C32.7128 42.5301 32.5779 42.947 32.7714 43.3345C32.7714 43.3345 31.9789 42.7521 31.6884 42.0234C31.6884 42.0234 31.603 42.3228 31.7848 42.7128C31.7848 42.7128 30.9729 42.2149 30.7038 41.7629C30.7038 41.7629 30.6168 41.9956 30.8241 42.2733C30.8241 42.2733 30.0491 41.7675 29.7541 40.9326C29.7541 40.9326 29.5721 41.1588 29.6908 41.6023C29.6908 41.6023 28.7264 40.7349 28.5598 40.181C28.5598 40.181 28.2958 40.3394 28.5176 40.7434C28.5175 40.7435 26.2836 39.5183 25.278 37.3034Z" fill="#34BE69"/>
<path d="M25.278 37.3034C25.278 37.3034 27.271 30.0645 34.7791 32.0641C34.7791 32.0641 33.8654 32.6769 33.1569 32.774C33.1569 32.774 33.4778 33.0724 33.9108 33.0607C33.9108 33.0607 33.048 33.5329 32.2649 33.4881C32.2649 33.4881 32.5 33.6921 32.9303 33.6922C32.9303 33.6922 32.136 34.2176 31.6128 34.2706C31.6128 34.2706 31.7869 34.4479 32.126 34.3772C32.126 34.3772 31.3401 34.8659 30.4589 34.7805C30.4589 34.7805 30.587 35.041 31.039 35.121C31.039 35.121 29.8454 35.6284 29.2729 35.5454C29.2729 35.5454 29.3048 35.8516 29.7648 35.8212C29.7649 35.8211 27.7104 37.328 25.278 37.3034Z" fill="#52C883"/>
<path d="M49.7823 27H47.7823C47.7823 37.5479 51.0514 45.4063 57.7479 50.9983C58.1453 50.4606 58.5219 49.9071 58.8856 49.3445C52.768 44.1566 49.7823 36.837 49.7823 27Z" fill="#8C665B"/>
<path d="M48.5471 26.7078C48.5471 26.7078 41.2451 29.7886 44.3476 37.3036C44.3476 37.3036 44.8654 36.2693 44.8714 35.5203C44.8714 35.5203 45.2268 35.8115 45.2729 36.2628C45.2729 36.2628 45.6505 35.3013 45.4984 34.4944C45.4984 34.4944 45.7433 34.7101 45.8014 35.1568C45.8014 35.1568 46.2438 34.2585 46.2286 33.708C46.2286 33.708 46.4375 33.8639 46.4093 34.226C46.4093 34.226 46.8145 33.3418 46.6065 32.4389C46.6065 32.4389 46.8961 32.5354 47.0406 32.9935C47.0406 32.9935 47.4106 31.6834 47.2466 31.1008C47.2466 31.1008 47.5711 31.091 47.6014 31.5728C47.6014 31.5729 48.9006 29.2294 48.5471 26.7078Z" fill="#43AB5F"/>
<path d="M48.5471 26.7078C48.5471 26.7078 56.4 27.778 55.3642 35.8421C55.3642 35.8421 54.5947 34.9786 54.3936 34.2571C54.3936 34.2571 54.1265 34.631 54.1996 35.0786C54.1996 35.0786 53.5844 34.2489 53.5209 33.4301C53.5209 33.4301 53.3407 33.7024 53.4012 34.1488C53.4012 34.1488 52.7399 33.397 52.611 32.8615C52.611 32.8615 52.4499 33.0666 52.5717 33.4088C52.5717 33.4088 51.95 32.6608 51.9152 31.7349C51.9152 31.7349 51.6609 31.9035 51.6409 32.3835C51.6409 32.3835 50.942 31.2151 50.9484 30.61C50.9484 30.61 50.6325 30.6853 50.729 31.1583C50.7289 31.158 48.8635 29.2343 48.5471 26.7078Z" fill="#43AB5F"/>
<path d="M48.5471 26.7077C48.5471 26.7077 45.8899 18.8676 38.3731 21.3925C38.3731 21.3925 39.3607 22.0229 40.0945 22.0976C40.0945 22.0976 39.7915 22.4387 39.3471 22.4454C39.3471 22.4454 40.2706 22.9241 41.0686 22.8402C41.0686 22.8402 40.8451 23.074 40.4046 23.0935C40.4046 23.0935 41.2626 23.6334 41.803 23.6681C41.803 23.6681 41.6399 23.87 41.2865 23.8077C41.2865 23.8077 42.1326 24.308 43.0277 24.1751C43.0277 24.1751 42.919 24.4662 42.4627 24.574C42.4627 24.574 43.728 25.0765 44.3072 24.9601C44.3072 24.9601 44.3006 25.2969 43.8271 25.2841C43.827 25.2841 46.0589 26.843 48.5471 26.7077Z" fill="#52C883"/>
<path d="M48.5471 26.7078C48.5471 26.7078 40.3741 23.0513 36.5194 31.4771C36.5194 31.4771 37.7763 31.1009 38.403 30.5226C38.403 30.5226 38.4343 31.0443 38.0951 31.434C38.0951 31.434 39.184 30.9983 39.7369 30.2436C39.7369 30.2436 39.7461 30.6146 39.4199 31.0108C39.4199 31.0108 40.5059 30.6783 40.9514 30.2369C40.9514 30.2369 40.9825 30.5315 40.6601 30.79C40.6601 30.79 41.7059 30.4375 42.2958 29.5618C42.2958 29.5618 42.4384 29.8771 42.169 30.3539C42.169 30.3539 43.5413 29.6404 43.8991 29.0505C43.8991 29.0505 44.1566 29.3121 43.7799 29.7124C43.78 29.7125 46.7249 28.9646 48.5471 26.7078Z" fill="#34BE69"/>
<path d="M48.5471 26.7078C48.5471 26.7078 55.484 21.0465 61.4024 28.1759C61.4024 28.1759 60.0909 28.1405 59.3351 27.7458C59.3351 27.7458 59.4409 28.2574 59.87 28.5453C59.87 28.5453 58.7051 28.4084 57.9746 27.8241C57.9746 27.8241 58.0625 28.1849 58.4807 28.4821C58.4807 28.4821 57.3456 28.4444 56.8004 28.1344C56.8004 28.1344 56.8472 28.427 57.2259 28.5925C57.2259 28.5925 56.1244 28.5249 55.3265 27.8331C55.3265 27.8331 55.2711 28.1749 55.6554 28.5648C55.6554 28.5648 54.1445 28.2338 53.6452 27.7578C53.6452 27.7578 53.4649 28.0775 53.9329 28.3656C53.933 28.3654 50.8949 28.4115 48.5471 26.7078Z" fill="#34BE69"/>
<path d="M48.5471 26.7077C48.5471 26.7077 46.348 18.0284 55.3105 15.6772C55.3105 15.6772 54.7242 16.851 54.0469 17.3691C54.0469 17.3691 54.5554 17.4895 54.9975 17.2222C54.9975 17.2222 54.3811 18.2201 53.543 18.6351C53.543 18.6351 53.907 18.7081 54.3531 18.4546C54.3531 18.4546 53.8392 19.4674 53.3279 19.8306C53.3279 19.8306 53.6127 19.9117 53.9229 19.6386C53.9229 19.6386 53.3961 20.6084 52.432 21.039C52.432 21.039 52.7182 21.2336 53.234 21.0502C53.234 21.0502 52.2955 22.2796 51.6531 22.5309C51.6531 22.5309 51.8666 22.8295 52.3256 22.527C52.3257 22.5271 51.0835 25.3 48.5471 26.7077Z" fill="#52C883"/>
<path d="M8.06525 45.1839C6.29313 41.6003 4.0045 41.7291 1.45425 41.5165C5.50563 54.5404 17.6426 64 32 64C38.276 64 44.1228 62.1836 49.0616 59.0603C47.4619 58.827 45.6666 58.3333 42.5333 59.6781C40.9659 60.3509 38.7809 57.4276 37.3339 57.25C33.2629 56.75 28.8333 59.9063 26.191 57.75C22.8025 54.9849 21.375 57.5 18.6506 56.3124C15.9263 55.1249 17.37 52.9059 16.2773 51.7223C14.5331 49.8334 10.6666 50.4446 8.06525 45.1839Z" fill="#674447"/>
</g>
<defs>
<clipPath id="clip0_209_734">
<rect width="64" height="64" fill="white"/>
</clipPath>
</defs>
</svg>
