<svg width="64" height="64" viewBox="0 0 64 64" fill="none" xmlns="http://www.w3.org/2000/svg">
<path d="M31.8895 62.4441C48.8032 62.4441 62.5145 48.7328 62.5145 31.8191C62.5145 14.9054 48.8032 1.19412 31.8895 1.19412C14.9758 1.19412 1.2645 14.9054 1.2645 31.8191C1.2645 48.7328 14.9758 62.4441 31.8895 62.4441Z" fill="#D46A56"/>
<path d="M45.2337 24.1327C45.5542 24.1269 45.8676 24.1211 46.1722 24.1211C47.5169 24.1211 48.1801 24.2526 48.5379 24.5905C48.8565 24.8914 49.3914 25.8093 49.3914 28.5763C49.3914 31.3429 48.8565 32.261 48.5379 32.5619C48.1799 32.9 47.5164 33.0315 46.172 33.0315C45.8673 33.0315 45.554 33.0257 45.2334 33.0199C45.181 33.0189 45.1271 33.0181 45.0745 33.0173V33.8564L45.0742 33.0173C45.0661 33.0171 45.0578 33.017 45.0496 33.0169C44.9669 34.4636 44.6665 35.7331 44.1795 36.8404C44.5136 36.8409 44.8424 36.8468 45.1639 36.8526C45.5081 36.8588 45.8446 36.8647 46.172 36.8647C49.8353 36.8647 53.2245 35.8607 53.2245 28.5761C53.2245 21.2919 49.8352 20.2878 46.1722 20.2878C45.8452 20.2878 45.5083 20.2938 45.1639 20.2999C45.1345 20.3004 45.1041 20.3009 45.0745 20.3014V24.1351C45.1275 24.1344 45.1812 24.1336 45.2337 24.1327Z" fill="#E9E9EB"/>
<path d="M39.2261 41.6851C41.4632 40.6432 43.199 39.07 44.1795 36.8404C44.6665 35.7331 44.9669 34.4636 45.0496 33.0169C45.0645 32.7547 45.0734 32.4876 45.0739 32.2136L45.0742 33.0172L45.0745 33.8564V33.0172V24.1354V20.3016V20.1896C45.0745 17.162 44.6001 16.761 41.5666 16.761H18.5551C15.5216 16.761 15.0474 17.162 15.0474 20.1896L15.0481 32.2137C15.0481 37.126 17.4967 40.1107 21.1694 41.809C21.6981 42.0536 21.6223 42.4744 21.6223 42.4744V42.9342H38.4994C38.4994 42.7032 38.4994 42.5186 38.4994 42.423C38.4995 41.9712 38.9519 41.8444 39.2261 41.6851Z" fill="#F8F8F8"/>
<path d="M12.5263 42.9341C11.4375 42.9341 10.5546 43.817 10.5546 44.9059C10.5546 45.9947 11.4375 46.8774 12.5263 46.8774H49.197C50.2859 46.8774 51.1688 45.9947 51.1688 44.9059C51.1688 43.817 50.2859 42.9341 49.197 42.9341H38.4995H21.6224H12.5263Z" fill="#E9E9EB"/>
</svg>
