<svg width="64" height="64" viewBox="0 0 64 64" fill="none" xmlns="http://www.w3.org/2000/svg">
<circle cx="32" cy="32" r="32" fill="#A08AF9"/>
<path d="M48.0066 34.2046L46.8675 36.4401V36.4472L45.0117 40.1014H45.0045L44.9544 40.2088L44.8398 40.4239L41.852 43.0964L41.8448 43.1036L41.7659 43.1752L38.5131 46.0842L38.47 46.1201L35.6686 48.6207L35.253 48.9933L35.1599 49.0792L34.5294 49.6381L34.4291 49.7314H34.4219L32.1936 51.7303H32.1865C32.1434 51.7732 32.0933 51.8091 32.0503 51.8522L32.0144 51.8881L31.8138 52.0671L31.7708 52.0241L30.3234 50.4048L29.9079 49.9391L29.349 49.3158L28.962 48.8787L28.919 48.8358L28.5249 48.3914L26.4614 46.0844L26.0315 45.6044V45.5972L25.8309 45.375L25.6016 45.1242L25.5801 45.1027L23.5739 42.8457L23.1439 42.3728V42.3657L22.7141 41.8927L20.6721 39.5998L20.2565 39.1341L21.5033 38.0164L22.8288 36.827L26.6048 33.4523L29.1699 31.1595L31.0256 29.4973L31.6633 28.9313L32.0359 28.7521L36.7003 26.4522H36.7074L37.5601 26.0294L38.9072 25.363L42.16 28.5228L48.0066 34.2046Z" fill="#E3C68C"/>
<path d="M58.1452 28.2074L50.7795 34.7921L49.9269 35.5516L47.7846 37.4718L46.8675 36.4472V36.4401L40.9061 29.7766L37.5601 26.0293L36.5427 24.89L38.685 22.9769L39.5376 22.2102L46.9105 15.6327L50.7509 19.9318L58.1452 28.2074Z" fill="white"/>
<path opacity="0.07" d="M60.2876 26.2943L58.1453 28.2074L50.7796 34.7921L49.9269 35.5515L42.941 27.7417L38.685 22.9769L39.5377 22.2102L48.9309 13.8128L49.0457 13.7126L50.8513 15.733L52.7858 17.8969L60.2876 26.2943Z" fill="#0F0F0F"/>
<path d="M62 26.4878L61.7923 26.6741L51.6394 35.7522L50.7796 34.7921L43.7507 26.9321L39.5377 22.2102L38.685 21.2574L48.0282 12.91L49.0457 12L53.5955 17.0873L62 26.4878Z" fill="#4A4A53"/>
<path d="M43.894 39.1628L43.8438 39.2201L41.0352 42.3655L41.0279 42.3727L40.9563 42.4514L38.0617 45.6829L38.0258 45.7259L35.6972 48.3339L35.1742 48.9215L35.1096 48.9932L34.5293 49.638L32.344 52.0812L32.3297 52.1028L32.2651 52.0455L32.0502 51.852L29.9079 49.9389L29.2773 49.3729L28.8761 49.0146L28.7973 48.9429L28.3889 48.5775L26.1892 46.6143L26.0244 46.4711L25.5443 46.0411V46.034L25.0714 45.6113L25.0643 45.6041L22.7715 43.562L22.2914 43.1322V43.1249L21.8114 42.7022L19.3036 40.4596L19.2033 40.2518L19.1388 40.1299L18.8307 39.5352L17.2114 36.354L16.1367 34.2403L25.2363 25.3987L26.4614 26.0005L28.2169 26.8675L28.9549 27.2329L30.9109 28.2003L32.0359 28.752L32.4802 28.9669L34.2212 30.5217L37.3595 33.3231L39.9532 35.6446L43.894 39.1628Z" fill="#FCEFC7"/>
<path d="M27.4574 24.89L26.4614 26.0005L17.2114 36.3541L16.2155 37.4718L14.0732 35.5516L13.2205 34.7921L5.8548 28.2074L17.0896 15.6327L24.4624 22.2102L25.3151 22.9769L27.4574 24.89Z" fill="white"/>
<path opacity="0.07" d="M25.315 22.9769L14.0731 35.5515L13.2205 34.7921L5.85477 28.2074L3.71246 26.2943L9.18653 20.1682L14.9544 13.7126L15.3198 14.035L24.4624 22.2102L25.315 22.9769Z" fill="#0F0F0F"/>
<path d="M25.315 21.2573L24.4624 22.2102L13.2205 34.792L12.3607 35.7521L8.29813 32.1195L2 26.4878L14.9544 12L16.2226 13.1321L25.315 21.2573Z" fill="#575859"/>
<path d="M40.3194 35.9109C39.4266 35.1131 38.056 35.19 37.2582 36.0829C36.4604 36.9756 36.5373 38.3462 37.4301 39.144L42.6866 43.8417C43.5793 44.6395 44.9499 44.5627 45.7477 43.6698C46.5457 42.7771 46.4687 41.4064 45.5759 40.6086L40.3194 35.9109Z" fill="#FCEFC7"/>
<path d="M37.435 39.166C36.5423 38.368 35.1482 38.4713 34.3215 39.3964C33.4947 40.3214 33.5483 41.7182 34.441 42.5161L39.6975 47.2138C40.5902 48.0117 41.9843 47.9085 42.811 46.9834C43.6378 46.0583 43.5842 44.6616 42.6915 43.8637L37.435 39.166Z" fill="#FCEFC7"/>
<path d="M33.5109 41.6161C32.6182 40.8183 31.2475 40.8952 30.4497 41.7881C29.6519 42.6808 29.7288 44.0514 30.6216 44.8492L35.8781 49.5469C36.7708 50.3447 38.1414 50.2679 38.9393 49.375C39.7372 48.4823 39.6602 47.1116 38.7675 46.3138L33.5109 41.6161Z" fill="#FCEFC7"/>
<path d="M34.8708 51.5586C34.2933 52.2045 33.4162 52.4229 32.6378 52.1924C32.539 52.1635 32.4418 52.1274 32.3471 52.0832C32.319 52.0703 32.2908 52.0567 32.2635 52.0422C32.1768 51.998 32.0933 51.9474 32.0122 51.8904C32.0082 51.8879 32.0041 51.8856 32.0001 51.8823C31.9342 51.8357 31.8708 51.7852 31.8098 51.7304L30.327 50.4051L29.2273 49.4227L28.8418 49.0773L28.7455 48.9914L28.3518 48.6396L26.5533 47.0323C26.4127 46.907 26.2923 46.7672 26.1926 46.617C26.1508 46.5543 26.1123 46.4901 26.0786 46.4242C25.9678 46.2145 25.8939 45.9905 25.8577 45.7607C25.8569 45.759 25.8569 45.7582 25.8569 45.7575C25.8369 45.6306 25.828 45.502 25.8304 45.3736C25.8336 45.1994 25.8577 45.0258 25.9034 44.8563C25.9878 44.5375 26.1468 44.2338 26.3814 43.9711C26.7332 43.5775 27.1967 43.3422 27.6819 43.2715C27.7992 43.2538 27.9188 43.2458 28.0378 43.249H28.0386C28.2226 43.2522 28.4056 43.2788 28.584 43.3286C28.6137 43.3367 28.6426 43.3454 28.6715 43.3542C28.9487 43.4451 29.2113 43.5928 29.4426 43.7992L31.5841 45.7133L31.9078 46.0026L32.1062 46.1801L32.3969 46.4395L34.6991 48.4975C34.8026 48.5898 34.8951 48.6903 34.9762 48.7971C35.0252 48.8598 35.0694 48.9257 35.1096 48.9924C35.1273 49.0205 35.1433 49.0494 35.1585 49.0783C35.2429 49.2325 35.3071 49.3955 35.3505 49.5626C35.5287 50.2422 35.3737 50.9956 34.8708 51.5586Z" fill="#FCEFC7"/>
<path d="M31.0399 28.9812L31.0256 29.4972L30.9754 31.5463L30.9324 33.438C30.9037 34.6344 29.915 35.5803 28.7184 35.5516C27.5505 35.5228 26.6334 34.5986 26.6047 33.4521C26.5975 33.4164 26.5975 33.3805 26.5975 33.3374L26.705 28.8808C26.7264 27.9278 27.357 27.1397 28.2168 26.8674C28.4389 26.7959 28.6825 26.76 28.9262 26.7672C29.8505 26.7815 30.6243 27.3762 30.9109 28.2001C31.004 28.4438 31.047 28.709 31.0399 28.9812Z" fill="#E3C68C"/>
<path opacity="0.04" d="M35.699 48.3328C35.6942 48.4293 35.6853 48.5248 35.6709 48.6204C35.6396 48.8244 35.5865 49.0253 35.5119 49.2189C35.4661 49.3362 35.4131 49.451 35.3504 49.5627C35.2026 49.8309 35.0074 50.0791 34.7656 50.2952L32.6379 52.1925C32.5391 52.1636 32.4418 52.1275 32.3471 52.0833L32.3303 52.1018L32.2636 52.0424C32.1769 51.9982 32.0933 51.9476 32.0122 51.8906L31.813 52.0682L31.7736 52.024C30.911 52.4891 29.8105 52.3212 29.1293 51.5589C28.7317 51.1139 28.5518 50.5508 28.5814 49.9982C28.5983 49.6793 28.6858 49.3644 28.8417 49.0777L28.7454 48.9918L28.122 49.5468C28.0731 49.5909 28.0224 49.632 27.9702 49.6705V49.6713C27.0801 50.334 25.8143 50.2192 25.0608 49.375C24.6648 48.9315 24.484 48.3709 24.5121 47.8199V47.8191C24.5386 47.2993 24.7515 46.7885 25.145 46.3957L24.0349 47.3845C23.9915 47.4239 23.9465 47.4608 23.8999 47.4954C23.0083 48.1725 21.7319 48.0616 20.9737 47.2126C20.4854 46.6664 20.3247 45.941 20.479 45.2776V45.2768C20.5754 44.8559 20.7986 44.4607 21.1456 44.1515L22.2911 43.1305L22.2895 43.1289L21.0677 44.2173C20.748 44.5024 20.3681 44.676 19.9745 44.7394C19.2676 44.8559 18.519 44.6189 18.0065 44.0454C17.2081 43.1522 17.2852 41.7818 18.1785 40.9842L18.8001 40.4307L24.3112 37.9956C24.3112 37.9956 25.4703 38.5881 25.684 38.9913C25.8976 39.3946 25.7779 39.6653 25.7346 40.0002C25.794 39.9954 25.8551 39.9938 25.9153 39.9938C26.7153 39.9938 27.4793 40.3359 28.0118 40.932C28.4117 41.3786 28.6415 41.9191 28.7058 42.4743C29.1034 42.2671 29.5468 42.1562 30.0022 42.1562C30.0624 42.1562 30.1219 42.1579 30.1814 42.1618C30.9156 42.2092 31.6064 42.5434 32.0987 43.0944C32.6795 43.7442 32.9019 44.5917 32.7806 45.3918C32.8175 45.3901 32.8544 45.3893 32.8915 45.3893C33.6915 45.3893 34.4554 45.7315 34.9879 46.3275C35.499 46.8982 35.7328 47.622 35.699 48.3328Z" fill="#0F0F0F"/>
<path d="M36.951 30.7367C35.9909 30.4643 35.0522 30.4357 34.2212 30.5216C32.3439 30.7294 30.9826 31.5462 30.9826 31.5462H30.9754L29.1699 31.1594L28.955 27.2329L28.9263 26.7672L36.7004 26.4519H36.7075C36.7075 26.4519 40.0965 31.6252 36.951 30.7367Z" fill="#E3C68C"/>
<path d="M25.0599 40.1276C24.9636 40.5477 24.7402 40.9437 24.3941 41.2529L23.1433 42.367L22.2895 43.1285L21.0677 44.217C20.748 44.5021 20.3681 44.6756 19.9745 44.739C19.2676 44.8555 18.519 44.6186 18.0065 44.045C17.2081 43.1518 17.2852 41.7815 18.1785 40.9839L19.1359 40.1309L20.2541 39.1341L21.5047 38.02C22.3971 37.2223 23.7675 37.2995 24.5659 38.1919C25.0543 38.7388 25.215 39.4641 25.0599 40.1276Z" fill="#E3C68C"/>
<path d="M28.081 42.9157C28.0754 43.0274 28.061 43.1391 28.0384 43.2491H28.0375C27.9532 43.6563 27.75 44.0435 27.4326 44.3536L27.4303 44.3561C27.4078 44.3786 27.3845 44.4003 27.3611 44.4211L26.0352 45.6025L25.8576 45.7607L25.5452 46.0386L25.1476 46.3929C25.1468 46.3937 25.1459 46.3945 25.1451 46.3954L24.035 47.3842C23.9916 47.4236 23.9466 47.4605 23.9 47.4951C23.0084 48.1722 21.732 48.0613 20.9738 47.2123C20.4855 46.6661 20.3249 45.9407 20.4791 45.2773V45.2765C20.5755 44.8555 20.7988 44.4604 21.1457 44.1511L22.2913 43.1302L23.1451 42.3695L24.4713 41.1879C24.791 40.9028 25.1709 40.7292 25.5645 40.665C26.2714 40.5494 27.0208 40.7863 27.5333 41.3598C27.93 41.8031 28.11 42.3646 28.081 42.9157Z" fill="#E3C68C"/>
<path d="M32.1038 45.5022C32.0604 45.6741 31.9962 45.8412 31.9093 46.0002C31.9093 46.001 31.9085 46.0019 31.9077 46.0027C31.7929 46.2155 31.6395 46.4124 31.4482 46.5835L28.922 48.8333L28.7975 48.945L28.7454 48.9917L28.1221 49.5467C28.0731 49.5908 28.0225 49.6319 27.9702 49.6704V49.6712C27.0802 50.3339 25.8143 50.2191 25.0608 49.3749C24.6648 48.9314 24.484 48.3708 24.5121 47.8198V47.819C24.5386 47.2992 24.7515 46.7884 25.145 46.3956C25.1459 46.3948 25.1467 46.394 25.1475 46.3931C25.1756 46.3667 25.2038 46.3394 25.2326 46.3136L25.5435 46.0364L25.8567 45.7576L26.0326 45.6003L27.4303 44.356L27.4327 44.3535L28.5588 43.3503C28.5669 43.343 28.5749 43.3358 28.5838 43.3286C28.6191 43.2981 28.6553 43.2683 28.6922 43.241C29.0633 42.9574 29.5018 42.8121 29.942 42.8009C30.5581 42.7832 31.1774 43.0274 31.62 43.5222C32.119 44.0803 32.2757 44.8266 32.1038 45.5022Z" fill="#E3C68C"/>
<path d="M34.989 48.7521C34.985 48.7666 34.9809 48.7819 34.9761 48.7971C34.8789 49.141 34.6949 49.4638 34.4267 49.7322C34.4259 49.733 34.4251 49.7338 34.4242 49.7346C34.3961 49.7628 34.3672 49.7901 34.3375 49.8166L32.1904 51.7307L32.1896 51.7315C32.1429 51.7725 32.0956 51.8118 32.0466 51.8488C32.0314 51.8601 32.0162 51.8713 32 51.8826C31.9269 51.9348 31.8514 51.9814 31.7735 52.0239C30.9108 52.489 29.8103 52.3211 29.1291 51.5588C28.7315 51.1138 28.5516 50.5507 28.5813 49.9981C28.5981 49.6792 28.6857 49.3643 28.8415 49.0776C28.8528 49.0567 28.864 49.0359 28.8768 49.0157C28.9033 48.9692 28.9322 48.9242 28.9635 48.88C29.0583 48.7427 29.1708 48.6141 29.3009 48.4976L31.448 46.5835C31.6472 46.4051 31.8705 46.2711 32.1059 46.1802C32.1067 46.1794 32.1076 46.1786 32.1091 46.1786C32.2665 46.1175 32.4296 46.075 32.5951 46.0533C33.2859 45.9577 34.0096 46.1963 34.5092 46.7554C35.013 47.3184 35.168 48.0718 34.989 48.7521Z" fill="#E3C68C"/>
<path opacity="0.04" d="M22.7577 47.927C23.161 47.8958 23.5588 47.7542 23.9 47.4951C23.9467 47.4605 23.9917 47.4236 24.035 47.3842L25.1452 46.3954C24.7515 46.7882 24.5387 47.299 24.5122 47.8187V47.8196C24.4841 48.3706 24.6648 48.9312 25.0609 49.3746C25.8144 50.219 27.0803 50.3337 27.9703 49.671V49.6702C28.0226 49.6316 28.0732 49.5907 28.1222 49.5464L28.7455 48.9914L28.8418 49.0774C28.686 49.3642 28.5984 49.6791 28.5816 49.998C28.5519 50.5506 28.7318 51.1137 29.1294 51.5587C29.8106 52.321 30.911 52.4889 31.7737 52.0238L31.8131 52.0678L32.0123 51.8904C32.0934 51.9475 32.177 51.9981 32.2637 52.0422L32.3304 52.1017L32.3473 52.0832C32.4421 52.1274 32.5392 52.1636 32.638 52.1924C33.4164 52.4229 34.2935 52.2045 34.871 51.5587C35.3739 50.9956 35.5289 50.2422 35.3505 49.5626C35.4131 49.4512 35.4661 49.3364 35.5117 49.2194L35.8781 49.5468C36.7709 50.3446 38.1415 50.2676 38.9393 49.3749C39.6318 48.6 39.6632 47.4664 39.0764 46.6585L39.6976 47.2135C40.5903 48.0114 41.9844 47.9083 42.811 46.9831C43.6378 46.0581 43.5844 44.6612 42.6915 43.8634L41.8423 43.1044L41.852 43.0956L42.6865 43.8415C43.5792 44.6393 44.9498 44.5623 45.7476 43.6696C46.5456 42.7769 46.4686 41.4064 45.5759 40.6084L45.006 40.0991L46.8674 36.4399L47.7864 37.4684L50.781 34.7921L51.6374 35.7503L61.9989 26.4904L53.5963 17.0883L22.7577 47.927Z" fill="#0F0F0F"/>
</svg>
