<svg width="64" height="64" viewBox="0 0 64 64" fill="none" xmlns="http://www.w3.org/2000/svg">
<circle cx="32" cy="32" r="32" fill="#FFA193"/>
<g clip-path="url(#clip0_209_731)">
<path d="M12.9694 51.6869C12.6065 51.6869 12.3125 51.3942 12.3131 51.0313L12.3138 42.4075L21.5938 51.6875L12.9694 51.6869Z" fill="#F9EBB2"/>
<path d="M51.3029 21.9784L48.508 24.7734L39.2273 15.492L42.0216 12.6984C42.5348 12.1852 43.3662 12.1852 43.8781 12.6971L51.3029 20.1219C51.8155 20.6351 51.8148 21.4652 51.3029 21.9784Z" fill="#F76D57"/>
<path d="M47.5808 25.7008L38.2997 16.4197L36.4435 18.2758L45.7247 27.557L47.5808 25.7008Z" fill="#F9EBB2"/>
<path d="M35.5148 19.204L13.2402 41.4786L15.5609 43.7992L37.8355 21.5246L35.5148 19.204Z" fill="#45AAB8"/>
<path d="M42.4753 26.1656L20.2017 48.4392L22.5214 50.7589L44.795 28.4853L42.4753 26.1656Z" fill="#45AAB8"/>
<path d="M38.7631 22.4529L16.489 44.727L19.2727 47.5107L41.5468 25.2366L38.7631 22.4529Z" fill="#45AAB8"/>
<path opacity="0.2" d="M15.5615 43.7984L37.8356 21.5243L35.5154 19.2041L13.2413 41.4782L15.5615 43.7984Z" fill="#231F20"/>
<path opacity="0.2" d="M44.7955 28.4848L42.4758 26.1651L20.2022 48.4387L22.5219 50.7584L44.7955 28.4848Z" fill="#231F20"/>
<path d="M52.2309 19.1942L44.8061 11.7693C43.781 10.7443 42.12 10.7443 41.0937 11.77C41.0937 11.77 11.7947 41.0689 11.3951 41.4686C10.9961 41.8669 11 42.5002 11 42.5002L11.0007 51.6871C11.0007 52.4122 11.5887 52.9996 12.3125 53.0002H21.5C21.5 53.0002 22.132 53.0055 22.5316 52.6051C22.9313 52.2048 52.2309 22.9052 52.2309 22.9052C53.2573 21.8802 53.2573 20.2205 52.2309 19.1942ZM12.3132 51.0315V49.9926L14.0076 51.6871H12.9694C12.6065 51.6871 12.3125 51.3944 12.3132 51.0315ZM15.8635 51.6877L12.3132 48.1374L12.3138 42.4083L21.5938 51.6877H15.8635ZM45.7235 27.5574L36.4435 18.2767L35.5155 19.2047L37.8354 21.5245L15.5616 43.7989L16.4895 44.7269L38.7627 22.4531L41.5471 25.2376L19.2733 47.5107L20.2013 48.4393L42.4751 26.1662L44.7949 28.486L22.5218 50.7598L13.2404 41.4784L38.2993 16.4202L47.5807 25.7015L45.7235 27.5574ZM51.3029 21.9786L48.508 24.7736L39.2273 15.4922L42.0216 12.6986C42.5348 12.1854 43.3663 12.1854 43.8781 12.6973L51.3029 20.1221C51.8155 20.6353 51.8148 21.4654 51.3029 21.9786Z" fill="#394240"/>
</g>
<defs>
<clipPath id="clip0_209_731">
<rect width="42" height="42" fill="white" transform="translate(11 11)"/>
</clipPath>
</defs>
</svg>
