<svg width="64" height="64" viewBox="0 0 64 64" fill="none" xmlns="http://www.w3.org/2000/svg">
<g clip-path="url(#clip0_211_1613)">
<path d="M32.0001 64.0001C49.6732 64.0001 64.0001 49.6732 64.0001 32.0001C64.0001 14.3269 49.6732 0 32.0001 0C14.3269 0 0 14.3269 0 32.0001C0 49.6732 14.3269 64.0001 32.0001 64.0001Z" fill="#F2BE3E"/>
<path d="M35.8701 38.1863V10.1235C35.8701 7.98604 34.137 6.2509 31.9986 6.2509C29.8591 6.2509 28.126 7.98604 28.126 10.1235V38.1857C24.4328 39.7108 21.8337 43.3423 21.8337 47.5821C21.8337 53.1944 26.3863 57.745 31.9986 57.745C37.6098 57.745 42.1624 53.1944 42.1624 47.5821C42.1624 43.3423 39.5611 39.7087 35.8701 38.1863Z" fill="white"/>
<path d="M34.6377 44.7272V25.6001C34.6377 24.1434 33.4553 22.9604 31.9986 22.9604C30.5419 22.9604 29.3584 24.1433 29.3584 25.6001V44.7274C26.843 45.7667 37.152 45.7656 34.6377 44.7272Z" fill="#E84849"/>
<path d="M32.0051 56.9326C37.0877 56.9326 41.208 52.8124 41.208 47.7297C41.208 42.6471 37.0877 38.5269 32.0051 38.5269C26.9224 38.5269 22.8022 42.6471 22.8022 47.7297C22.8022 52.8124 26.9224 56.9326 32.0051 56.9326Z" fill="#E84849"/>
<path d="M29.3654 11.0128V12.4201H32.7504V11.0128H29.3654ZM29.3654 17.1172H33.761V15.709H29.3654V17.1172ZM29.3654 21.8149H32.7504V20.4051H29.3654V21.8149Z" fill="#F59C9E"/>
<path d="M29.3654 26.5494H33.761V25.1412H29.3654V26.5494ZM29.3654 36.15H33.761V34.7418H29.3654V36.15ZM29.3654 31.2471H32.7504V29.8369H29.3654V31.2471Z" fill="#F59C9E"/>
<path d="M25.2746 48.5528C23.9411 47.2209 25.4049 43.5312 26.7374 42.1993C28.0698 40.8674 31.2956 39.6021 32.6271 40.9345C33.9595 42.267 26.6071 49.8853 25.2746 48.5528Z" fill="#F59C9E"/>
</g>
<defs>
<clipPath id="clip0_211_1613">
<rect width="64" height="64" fill="white"/>
</clipPath>
</defs>
</svg>
