<svg width="64" height="64" viewBox="0 0 64 64" fill="none" xmlns="http://www.w3.org/2000/svg">
<circle cx="32" cy="32" r="32" fill="#17ACFF"/>
<path fill-rule="evenodd" clip-rule="evenodd" d="M15.023 31.3838C15.023 40.6141 21.7154 46.9016 29.2304 48.203C30.0903 48.3519 30.6668 49.1696 30.5179 50.0298C30.369 50.8897 29.5511 51.4661 28.6912 51.3172C19.8628 49.7884 11.8625 42.3475 11.8625 31.3838C11.8625 26.7245 13.9823 23.0628 16.4577 20.2774C18.231 18.282 20.2598 16.6619 21.8914 15.4208H16.9297C16.0924 15.4208 15.4137 14.742 15.4137 13.9047C15.4137 13.0675 16.0924 12.3887 16.9297 12.3887H26.0259C26.8631 12.3887 27.5419 13.0675 27.5419 13.9047V23.0009C27.5419 23.8382 26.8631 24.5169 26.0259 24.5169C25.1886 24.5169 24.5098 23.8382 24.5098 23.0009V17.405L24.5053 17.4085C22.7725 18.7153 20.6547 20.3126 18.8202 22.3768C16.6537 24.8146 15.023 27.7598 15.023 31.3838ZM48.7022 32.6161C48.7022 23.4834 42.1517 17.2327 34.7333 15.84C33.8755 15.679 33.3107 14.8531 33.4717 13.9953C33.6328 13.1375 34.4587 12.5727 35.3164 12.7337C44.0313 14.3698 51.8625 21.77 51.8625 32.6161C51.8625 37.2754 49.7428 40.937 47.2674 43.7225C45.494 45.7179 43.4652 47.3379 41.8337 48.5793H46.7956C47.6328 48.5793 48.3116 49.2578 48.3116 50.0953C48.3116 50.9324 47.6328 51.6113 46.7956 51.6113H37.6993C36.862 51.6113 36.1833 50.9324 36.1833 50.0953V40.9991C36.1833 40.1617 36.862 39.483 37.6993 39.483C38.5366 39.483 39.2153 40.1617 39.2153 40.9991V46.5948L39.2201 46.5911C40.9528 45.2843 43.0704 43.6873 44.9048 41.6231C47.0715 39.1852 48.7022 36.2401 48.7022 32.6161Z" fill="white"/>
</svg>
